<svg width="25.000000" height="24.000000" viewBox="0 0 25 24" fill="none" xmlns="http://www.w3.org/2000/svg" xmlns:xlink="http://www.w3.org/1999/xlink">
	<desc>
			Created with Pixso.
	</desc>
	<defs/>
	<path id="Shape" d="M23.95 -0.48C23.81 -0.6 23.6 -0.62 23.43 -0.53L0.18 12.07C0.01 12.16 -0.08 12.34 -0.07 12.53C-0.05 12.73 0.08 12.89 0.26 12.95L6.87 15.1L6.23 21.65C6.21 21.85 6.33 22.05 6.52 22.13C6.58 22.16 6.64 22.17 6.71 22.17C6.84 22.17 6.98 22.12 7.07 22.01L11.24 17.3L17.51 23.49C17.6 23.58 17.72 23.63 17.85 23.63C17.89 23.63 17.94 23.62 17.98 23.61C18.14 23.56 18.27 23.43 18.31 23.26L24.13 0.01C24.17 -0.17 24.11 -0.37 23.95 -0.48ZM7.84 15.01L17.29 7.37L10.85 16.29L7.33 20.27L7.84 15.01Z" fill="#FFFFFF" fill-opacity="1.000000" fill-rule="nonzero"/>
</svg>
